# xmcd
#
# Track frame offsets:
# 150
# 20285
# 40423
# 55284
# 72961
# 90661
# 103743
# 119017
# 147072
# 163967
# 180671
# 202192
# 211822
#
# Disc length: 3026 seconds
#
# Revision: 0
# Processed by: cddbd v1.5.2PL0 Copyright (c) Steve Scherf et al.
# Submitted via: Audion 3.0.2 (http://www.panic.com/audion/)
#
DISCID=c10bd00d
DTITLE=Liquid Soul - Here's the Deal
DYEAR=1900
DGENRE=
TTITLE0=Sure Fire One
TTITLE1=Sure Fire One
TTITLE2=The Diz
TTITLE3=Stop By Monie's
TTITLE4=Everybody Has One
TTITLE5=Show Me
TTITLE6=Sex Tablet
TTITLE7=All Blues
TTITLE8=Sweet Pea
TTITLE9=Donkey Punch
TTITLE10=Dysfunction
TTITLE11=Rocket Scientist
TTITLE12=Spam Sucker
EXTD=
EXTT0=
EXTT1=
EXTT2=
EXTT3=
EXTT4=
EXTT5=
EXTT6=
EXTT7=
EXTT8=
EXTT9=
EXTT10=
EXTT11=
EXTT12=
PLAYORDER=
